<?xml version="1.0" encoding="UTF-8"?>
<svg width="25px" height="18px" viewBox="0 0 25 18" version="1.1" xmlns="http://www.w3.org/2000/svg" xmlns:xlink="http://www.w3.org/1999/xlink">
    <!-- Generator: Sketch 52.6 (67491) - http://www.bohemiancoding.com/sketch -->
    <title>cc-active</title>
    <desc>Created with Sketch.</desc>
    <g id="Page-1" stroke="none" stroke-width="1" fill="none" fill-rule="evenodd">
        <g id="Icons" transform="translate(-873.000000, -402.000000)" fill="#EC2C22">
            <g id="cc-active" transform="translate(873.000000, 402.000000)">
                <path d="M22.6190476,16.2 L2.38095238,16.2 C2.05277778,16.2 1.78571429,15.9308 1.78571429,15.6 L1.78571429,9 L23.2142857,9 L23.2142857,15.6 C23.2142857,15.9308 22.9472222,16.2 22.6190476,16.2 M2.38095238,1.8 L22.6190476,1.8 C22.9472222,1.8 23.2142857,2.0692 23.2142857,2.4 L23.2142857,5.4 L1.78571429,5.4 L1.78571429,2.4 C1.78571429,2.0692 2.05277778,1.8 2.38095238,1.8 M22.6190476,0 L2.38095238,0 C1.06607143,0 0,1.0746 0,2.4 L0,15.6 C0,16.9254 1.06607143,18 2.38095238,18 L22.6190476,18 C23.9339286,18 25,16.9254 25,15.6 L25,2.4 C25,1.0746 23.9339286,0 22.6190476,0" id="Fill-9"></path>
                <path d="M6.6468254,12.6 L4.46428571,12.6 C3.97123016,12.6 3.57142857,13.003 3.57142857,13.5 C3.57142857,13.997 3.97123016,14.4 4.46428571,14.4 L6.6468254,14.4 C7.13988095,14.4 7.53968254,13.997 7.53968254,13.5 C7.53968254,13.003 7.13988095,12.6 6.6468254,12.6" id="Fill-11"></path>
                <path d="M12.0039683,12.6 L9.82142857,12.6 C9.32837302,12.6 8.92857143,13.003 8.92857143,13.5 C8.92857143,13.997 9.32837302,14.4 9.82142857,14.4 L12.0039683,14.4 C12.4970238,14.4 12.8968254,13.997 12.8968254,13.5 C12.8968254,13.003 12.4970238,12.6 12.0039683,12.6" id="Fill-13"></path>
            </g>
        </g>
    </g>
</svg>